<svg width="28" height="28" viewBox="0 0 28 28" fill="none" xmlns="http://www.w3.org/2000/svg">
<g clip-path="url(#clip0_115_311)">
<path d="M3.52334 18.2234C3.43001 21.0467 3.89668 23.2867 4.30501 23.6951C4.71334 24.1034 6.96501 24.5817 9.77668 24.4767L3.52334 18.2234Z" fill="#F14B51"/>
<path d="M15.26 3.82672C12.5417 4.31672 9.67166 5.39005 7.53666 7.53672C5.40166 9.68339 4.31666 12.5417 3.82666 15.2601L12.7283 24.1617C15.4583 23.6834 18.3167 22.5984 20.4517 20.4517C22.5867 18.3051 23.6717 15.4467 24.1617 12.7284L15.26 3.82672ZM11.55 18.0834L9.91666 16.4501L16.45 9.91672L18.0833 11.5501L11.55 18.0834Z" fill="#F14B51"/>
<path d="M24.4767 9.77669C24.57 6.95336 24.1033 4.71336 23.695 4.30503C23.2867 3.89669 21.035 3.41836 18.2233 3.52336L24.4767 9.77669Z" fill="#F14B51"/>
</g>
<defs>
<clipPath id="clip0_115_311">
<rect width="28" height="28" fill="white"/>
</clipPath>
</defs>
</svg>
