<svg width="44" height="67" viewBox="0 0 44 67" fill="none" xmlns="http://www.w3.org/2000/svg">
<path d="M40.5003 22.0959L30.6734 12.2848C30.5642 12.1757 30.4454 12.0815 30.3328 11.9768H30.3434L18.3648 0L19.0019 7.08664L13.8134 12.2751L13.8002 12.3068L3.49983 22.5905C0.0959884 25.989 -0.932732 31.0992 0.890628 35.5502L7.94471 52.7683L12.0217 46.6101L22.2491 66.2006L41.9374 37.2398C45.1581 32.5019 44.5554 26.1439 40.5012 22.0968L40.5003 22.0959ZM17.3299 45.1334L20.6607 42.0006C21.2169 41.4779 22.0872 41.4911 22.6275 42.0306L25.8782 45.2786C23.4107 47.4065 19.7385 47.3642 17.3308 45.1343L17.3299 45.1334ZM35.6832 35.5397L28.1671 43.0558L24.8821 39.7725C24.3919 39.2832 23.8181 38.94 23.2101 38.7165V37.6429L25.6538 35.4746C26.3763 34.8339 26.7899 33.9143 26.7899 32.9481V29.3586C26.7899 28.8614 27.2704 28.5551 27.7148 28.5551H30.2932C32.055 28.5551 33.4832 27.1269 33.4832 25.3651H27.7148C25.4453 25.3651 23.5999 27.1559 23.5999 29.3586L23.5383 32.9736H19.786V29.3586C19.786 27.1559 17.9406 25.3651 15.6711 25.3651H9.90271C9.90271 27.1269 11.3309 28.5551 13.0927 28.5551H15.6711C16.1085 28.5551 16.596 28.8851 16.596 29.3586V32.9736C16.596 33.9126 16.9867 34.8084 17.674 35.4482L20.0201 37.6306V38.7156C19.4639 38.9242 18.9386 39.2436 18.4766 39.6766L15.056 42.8938L7.70183 35.5397C5.18679 33.0255 5.18679 28.9485 7.70183 26.4334L17.1398 16.9954C19.6549 14.4813 23.731 14.4813 26.2461 16.9954L35.6841 26.4334C38.1991 28.9476 38.1991 33.0246 35.6841 35.5397H35.6832Z" fill="#ED1C24"/>
</svg>
