<svg width="913" height="1024" viewBox="0 0 913 1024" fill="none" xmlns="http://www.w3.org/2000/svg">
<path d="M840.381 283.49L636.472 79.9096C634.207 77.6454 631.742 75.6916 629.405 73.5186H629.624L381.069 -175L394.289 -27.9522L286.628 79.7088L286.354 80.3661L72.6211 293.753C1.99139 364.273 -19.3545 470.308 18.4802 562.668L164.852 919.943L249.451 792.159L461.669 1198.66L870.2 597.727C937.031 499.415 924.523 367.486 840.399 283.509L840.381 283.49ZM359.595 761.519L428.709 696.513C440.25 685.667 458.309 685.941 469.52 697.134L536.973 764.532C485.772 808.685 409.573 807.808 359.614 761.537L359.595 761.519ZM740.426 562.448L584.467 718.407L516.303 650.279C506.132 640.126 494.226 633.005 481.609 628.367V606.09L532.317 561.097C547.308 547.804 555.89 528.722 555.89 508.673V434.19C555.89 423.873 565.86 417.519 575.082 417.519H628.583C665.14 417.519 694.776 387.883 694.776 351.326H575.082C527.989 351.326 489.698 388.485 489.698 434.19L488.42 509.202H410.559V434.19C410.559 388.485 372.268 351.326 325.175 351.326H205.481C205.481 387.883 235.117 417.519 271.673 417.519H325.175C334.25 417.519 344.366 424.366 344.366 434.19V509.202C344.366 528.686 352.474 547.274 366.735 560.549L415.416 605.834V628.349C403.876 632.676 392.975 639.305 383.388 648.289L312.411 715.047L159.813 562.448C107.625 510.28 107.625 425.681 159.813 373.494L355.651 177.655C407.838 125.487 492.418 125.487 544.606 177.655L740.444 373.494C792.631 425.663 792.631 510.261 740.444 562.448H740.426Z" fill="#1A1A1A"/>
</svg>
